# This file uses centimeters as units for non-parametric coordinates.

mtllib Bat.mtl
g default
v 0.000000 1.553396 -0.500000
v 0.000000 1.553396 0.500000
v 0.000000 1.662454 -1.422787
v 0.000000 1.967809 0.866025
v 0.000000 2.419421 -1.000000
v 0.000000 2.419421 0.911676
v 0.000000 2.919421 -0.866025
v 0.000000 2.470301 0.920895
v 0.000000 3.285447 -0.500000
v 0.000000 3.285447 0.500000
v 0.000000 1.419421 0.000000
v 0.000000 3.419421 0.000000
v -2.433338 2.119819 -0.053861
v -1.121200 2.569998 -0.069016
v -2.433338 2.217402 -0.053861
v -1.035224 2.768844 -0.060453
v -2.093759 2.519858 -0.149755
v -0.891770 2.814036 -0.359338
v -2.093759 2.422275 -0.149755
v -1.084413 2.570851 -0.303149
v -1.488798 2.663122 -0.246633
v -1.488798 2.584776 -0.187621
v -1.622790 2.999990 0.390731
v -1.622790 3.078336 0.250499
v -1.789218 2.617525 -0.179384
v -1.789218 2.506239 -0.141320
v -1.952733 2.799468 0.246592
v -1.952733 2.871183 0.180416
v -1.254719 2.664925 -0.331980
v -1.254719 2.503545 -0.214758
v -1.282427 2.676237 0.022988
v -1.282427 2.837618 -0.094234
v -0.353553 1.553396 -0.353553
v -0.500000 1.553396 0.000000
v -0.353553 1.553396 0.353553
v -0.612372 1.919421 -0.612372
v -0.866025 1.919421 0.000000
v -0.502886 1.919421 0.720185
v -0.707107 2.419421 -0.707107
v -1.000000 2.419421 0.000000
v -0.459768 2.419421 0.819804
v -0.612372 2.919421 -0.612372
v -0.866025 2.919421 0.000000
v -0.443754 2.919421 0.777267
v -0.353553 3.285447 -0.353553
v -0.500000 3.285447 0.000000
v -0.353553 3.285447 0.353553
v -0.857766 2.419421 0.343383
v -0.300791 4.078689 0.117851
v 0.000000 2.224630 -0.947806
v -0.207022 1.919421 -0.780274
v 0.000000 1.739366 -0.685970
v 2.433338 2.119819 -0.053861
v 1.121200 2.569998 -0.069016
v 2.433338 2.217402 -0.053861
v 1.035224 2.768844 -0.060453
v 2.093759 2.519858 -0.149755
v 0.891770 2.814036 -0.359338
v 2.093759 2.422275 -0.149755
v 1.084413 2.570851 -0.303149
v 1.488798 2.663122 -0.246633
v 1.488798 2.584776 -0.187621
v 1.622790 2.999990 0.390731
v 1.622790 3.078336 0.250499
v 1.789218 2.617525 -0.179384
v 1.789218 2.506239 -0.141320
v 1.952733 2.799468 0.246592
v 1.952733 2.871183 0.180416
v 1.254719 2.664925 -0.331980
v 1.254719 2.503545 -0.214758
v 1.282427 2.676237 0.022988
v 1.282427 2.837618 -0.094234
v 0.353553 1.553396 -0.353553
v 0.500000 1.553396 0.000000
v 0.353553 1.553396 0.353553
v 0.612372 1.919421 -0.612372
v 0.866025 1.919421 0.000000
v 0.502886 1.919421 0.720185
v 0.707107 2.419421 -0.707107
v 1.000000 2.419421 0.000000
v 0.459768 2.419421 0.819804
v 0.612372 2.919421 -0.612372
v 0.866025 2.919421 0.000000
v 0.443754 2.919421 0.777267
v 0.353553 3.285447 -0.353553
v 0.500000 3.285447 0.000000
v 0.353553 3.285447 0.353553
v 0.857766 2.419421 0.343383
v 0.300791 4.078689 0.117851
v 0.207022 1.919421 -0.780274
vt 0.608072 0.420365
vt 0.608066 0.420514
vt 0.608036 0.420448
vt 0.608069 0.420375
vt 0.608079 0.420183
vt 0.608076 0.420306
vt 0.608139 0.420155
vt 0.608085 0.420290
vt 0.607948 0.419868
vt 0.606300 0.419446
vt 0.609907 0.416435
vt 0.608500 0.419618
vt 0.608293 0.421023
vt 0.611309 0.421832
vt 0.607881 0.420893
vt 0.607057 0.423352
vt 0.591785 0.418570
vt 0.610142 0.405726
vt 0.621194 0.416903
vt 0.609649 0.433524
vt 0.448435 0.268548
vt 0.471353 0.270834
vt 0.507356 0.297430
vt 0.468877 0.310362
vt 0.446774 0.290770
vt 0.503913 0.245436
vt 0.572040 0.267608
vt 0.524885 0.190015
vt 0.685126 0.799868
vt 0.448399 0.140211
vt 0.448498 0.000977
vt 0.449005 0.323447
vt 0.540712 0.369326
vt 0.443925 0.340858
vt 0.656899 0.378816
vt 0.887922 0.403718
vt 0.696377 0.898473
vt 0.787450 0.902186
vt 0.542656 0.448437
vt 0.442129 0.419937
vt 0.748218 0.773214
vt 0.511313 0.535560
vt 0.441851 0.508344
vt 0.632703 0.476173
vt 0.544951 0.604821
vt 0.520765 0.680005
vt 0.787450 0.912394
vt 0.440909 0.690938
vt 0.448992 0.226608
vt 0.441423 0.608378
vt 0.499908 0.630101
vt 0.450786 0.308618
vt 0.277121 0.421125
vt 0.277124 0.421135
vt 0.277156 0.421207
vt 0.277126 0.421269
vt 0.277117 0.421067
vt 0.277115 0.420948
vt 0.277109 0.421051
vt 0.277057 0.420919
vt 0.277244 0.420650
vt 0.276711 0.420381
vt 0.275367 0.417233
vt 0.278842 0.420322
vt 0.276903 0.421751
vt 0.273982 0.422381
vt 0.277303 0.421646
vt 0.278083 0.424070
vt 0.275156 0.406927
vt 0.292906 0.420174
vt 0.264476 0.417075
vt 0.275494 0.433819
vt 0.438354 0.309723
vt 0.402350 0.300801
vt 0.427522 0.264936
vt 0.323414 0.267729
vt 0.395168 0.244120
vt 0.889775 0.799868
vt 0.372265 0.188763
vt 0.341261 0.377127
vt 0.230594 0.377757
vt 0.999023 0.891658
vt 0.878524 0.898473
vt 0.341380 0.449817
vt 0.885093 0.995953
vt 0.372322 0.535286
vt 0.338110 0.603465
vt 0.252432 0.474727
vt 0.361290 0.678593
vt 0.382754 0.629216
vt 0.000977 0.394700
vt 0.189281 0.080807
vt 0.133138 0.766960
vt 0.439428 0.893061
vt 0.787450 0.813096
vt 0.575878 0.891658
vt 0.706039 0.086061
vt 0.689808 0.995953
vn -0.715160 0.254465 0.650994
vn -0.676579 0.423031 0.602732
vn -0.650568 0.498490 0.572948
vn -0.715160 0.254465 0.650994
vn -0.524245 0.685389 -0.505381
vn -0.373598 0.705677 -0.602034
vn -0.373814 0.705665 -0.601914
vn -0.524245 0.685389 -0.505381
vn 0.019229 -0.179252 -0.983615
vn -0.035758 -0.344493 -0.938108
vn -0.019355 -0.296011 -0.954988
vn 0.019229 -0.179252 -0.983615
vn 0.494338 -0.710731 0.500492
vn 0.343841 -0.740330 0.577655
vn 0.322403 -0.742690 0.586914
vn 0.494338 -0.710731 0.500492
vn -0.271764 0.000000 -0.962364
vn -0.271764 0.000000 -0.962364
vn -0.271764 0.000000 -0.962364
vn -0.271764 0.000000 -0.962364
vn -0.201425 -0.527626 -0.825251
vn -0.133482 -0.448276 -0.883873
vn -0.170437 -0.479644 -0.860752
vn -0.183247 -0.517847 -0.835617
vn 0.159500 -0.771047 0.616479
vn 0.038798 -0.797571 0.601976
vn -0.109767 -0.864159 0.491102
vn -0.174679 -0.827953 0.532899
vn 0.524935 0.646947 0.553085
vn 0.384812 0.708729 0.591289
vn 0.658720 0.401221 0.636482
vn 0.694425 0.413030 0.589220
vn -0.224451 0.730477 -0.645000
vn -0.259057 0.716338 -0.647880
vn -0.155625 0.827102 -0.540077
vn -0.148343 0.869118 -0.471836
vn -0.049491 -0.373485 -0.926315
vn -0.049491 -0.373485 -0.926315
vn 0.081348 -0.932895 0.350843
vn 0.081348 -0.932894 0.350843
vn 0.233031 0.229439 0.945015
vn 0.233031 0.229439 0.945015
vn -0.123068 0.955977 -0.266386
vn -0.123068 0.955978 -0.266386
vn -0.281085 -0.678598 -0.678598
vn -0.281085 -0.678598 -0.678598
vn -0.281085 -0.678598 -0.678598
vn -0.398144 -0.740992 -0.540752
vn -0.383667 -0.734377 -0.559902
vn -0.678598 -0.678598 -0.281085
vn -0.678598 -0.678598 -0.281085
vn -0.678598 -0.678598 -0.281085
vn -0.678598 -0.678598 -0.281085
vn -0.688103 -0.647973 0.326567
vn -0.688103 -0.647973 0.326567
vn -0.688103 -0.647973 0.326567
vn -0.688103 -0.647973 0.326567
vn -0.198293 -0.690746 0.695378
vn -0.198293 -0.690746 0.695378
vn -0.198293 -0.690746 0.695378
vn -0.198293 -0.690746 0.695378
vn -0.481762 -0.147381 -0.863820
vn -0.499102 -0.131597 -0.856493
vn -0.371470 -0.240299 -0.896809
vn -0.371470 -0.240299 -0.896809
vn -0.371470 -0.240299 -0.896809
vn -0.896809 -0.240299 -0.371470
vn -0.896809 -0.240299 -0.371470
vn -0.896809 -0.240299 -0.371470
vn -0.896809 -0.240299 -0.371470
vn -0.860390 -0.240878 0.449118
vn -0.840192 -0.191350 0.507408
vn -0.765994 -0.061438 0.639905
vn -0.230286 -0.137342 0.963382
vn -0.231670 -0.135902 0.963255
vn -0.192900 -0.175702 0.965359
vn -0.371470 0.240299 -0.896809
vn -0.468118 0.260142 -0.844507
vn -0.459526 0.258463 -0.849725
vn -0.371470 0.240299 -0.896809
vn -0.831673 0.208738 0.514537
vn -0.849767 0.258540 0.459406
vn -0.765053 0.078875 0.639118
vn -0.195164 0.089342 0.976693
vn -0.220800 0.065627 0.973109
vn -0.197355 0.087329 0.976435
vn -0.281085 0.678598 -0.678598
vn -0.281085 0.678598 -0.678598
vn -0.281085 0.678598 -0.678598
vn -0.281085 0.678598 -0.678598
vn -0.678598 0.678598 -0.281084
vn -0.678598 0.678598 -0.281084
vn -0.678598 0.678598 -0.281084
vn -0.678598 0.678598 -0.281084
vn -0.691897 0.632609 0.347972
vn -0.691897 0.632609 0.347972
vn -0.691897 0.632609 0.347972
vn -0.691897 0.632609 0.347972
vn 0.030421 0.579848 0.814157
vn 0.030421 0.579848 0.814157
vn 0.030421 0.579848 0.814157
vn 0.030421 0.579848 0.814157
vn -0.106596 -0.960422 -0.257345
vn -0.106596 -0.960422 -0.257345
vn -0.106596 -0.960422 -0.257345
vn -0.257344 -0.960423 -0.106595
vn -0.257344 -0.960423 -0.106595
vn -0.257344 -0.960423 -0.106595
vn -0.257344 -0.960423 0.106595
vn -0.257344 -0.960423 0.106595
vn -0.257344 -0.960423 0.106595
vn -0.106596 -0.960422 0.257345
vn -0.106596 -0.960422 0.257345
vn -0.106596 -0.960422 0.257345
vn -0.106596 0.960423 -0.257344
vn -0.106596 0.960423 -0.257344
vn -0.106596 0.960423 -0.257344
vn -0.257344 0.960422 -0.106596
vn -0.257344 0.960422 -0.106596
vn -0.257344 0.960422 -0.106596
vn -0.106596 0.960423 0.257344
vn -0.106596 0.960423 0.257344
vn -0.106596 0.960423 0.257344
vn -0.446445 -0.159538 0.880474
vn -0.856780 0.282245 0.431586
vn -0.856780 0.282245 0.431586
vn -0.869806 -0.269475 0.413304
vn -0.869806 -0.269475 0.413304
vn -0.268611 -0.096874 0.958365
vn -0.607075 -0.765475 -0.213328
vn -0.607075 -0.765475 -0.213328
vn -0.607075 -0.765475 -0.213328
vn -0.607075 -0.765475 -0.213328
vn -0.404439 0.116176 0.907156
vn -0.404439 0.116176 0.907156
vn -0.404439 0.116176 0.907156
vn -0.404439 0.116176 0.907156
vn -0.548694 0.812034 -0.198838
vn -0.548694 0.812034 -0.198838
vn -0.548694 0.812034 -0.198838
vn -0.548694 0.812034 -0.198838
vn -0.665861 0.293062 -0.686108
vn -0.665861 0.293062 -0.686108
vn -0.910025 0.172534 0.376944
vn -0.910025 0.172534 0.376944
vn -0.910025 0.172534 0.376944
vn 0.663110 0.172333 0.728414
vn 0.663110 0.172333 0.728414
vn 0.663110 0.172333 0.728413
vn -0.042112 0.157165 -0.986674
vn -0.042112 0.157165 -0.986674
vn -0.042112 0.157165 -0.986674
vn -0.843382 0.346774 -0.410433
vn -0.673983 -0.734755 0.076696
vn 0.715160 0.254465 0.650994
vn 0.715160 0.254465 0.650994
vn 0.650568 0.498490 0.572948
vn 0.676579 0.423031 0.602732
vn 0.524245 0.685389 -0.505381
vn 0.524245 0.685389 -0.505381
vn 0.373814 0.705665 -0.601914
vn 0.373598 0.705677 -0.602034
vn -0.019229 -0.179252 -0.983615
vn -0.019229 -0.179252 -0.983615
vn 0.019355 -0.296011 -0.954988
vn 0.035758 -0.344493 -0.938108
vn -0.494338 -0.710731 0.500492
vn -0.494338 -0.710731 0.500492
vn -0.322403 -0.742689 0.586914
vn -0.343841 -0.740330 0.577655
vn 0.271764 0.000000 -0.962364
vn 0.271764 0.000000 -0.962364
vn 0.271764 0.000000 -0.962364
vn 0.271764 0.000000 -0.962364
vn 0.201425 -0.527626 -0.825251
vn 0.183247 -0.517847 -0.835617
vn 0.170437 -0.479644 -0.860751
vn 0.133482 -0.448276 -0.883873
vn -0.159500 -0.771047 0.616479
vn 0.174679 -0.827953 0.532899
vn 0.109767 -0.864159 0.491102
vn -0.038798 -0.797571 0.601976
vn -0.524935 0.646947 0.553085
vn -0.694425 0.413030 0.589220
vn -0.658720 0.401221 0.636482
vn -0.384812 0.708729 0.591290
vn 0.224451 0.730477 -0.645000
vn 0.148342 0.869117 -0.471836
vn 0.155625 0.827102 -0.540077
vn 0.259057 0.716338 -0.647880
vn 0.049491 -0.373485 -0.926315
vn 0.049491 -0.373485 -0.926315
vn -0.081348 -0.932895 0.350842
vn -0.081348 -0.932895 0.350842
vn -0.233031 0.229439 0.945015
vn -0.233031 0.229439 0.945015
vn 0.123068 0.955977 -0.266387
vn 0.123068 0.955977 -0.266387
vn 0.281085 -0.678598 -0.678599
vn 0.383667 -0.734377 -0.559902
vn 0.398144 -0.740992 -0.540752
vn 0.281085 -0.678598 -0.678599
vn 0.281085 -0.678598 -0.678599
vn 0.678598 -0.678598 -0.281085
vn 0.678598 -0.678598 -0.281085
vn 0.678598 -0.678598 -0.281085
vn 0.678598 -0.678598 -0.281085
vn 0.688103 -0.647973 0.326567
vn 0.688103 -0.647973 0.326567
vn 0.688103 -0.647973 0.326567
vn 0.688103 -0.647973 0.326567
vn 0.198293 -0.690746 0.695378
vn 0.198293 -0.690746 0.695378
vn 0.198293 -0.690746 0.695378
vn 0.198293 -0.690746 0.695378
vn 0.481761 -0.147381 -0.863820
vn 0.371470 -0.240299 -0.896809
vn 0.371470 -0.240299 -0.896809
vn 0.371470 -0.240299 -0.896809
vn 0.499102 -0.131597 -0.856493
vn 0.896809 -0.240299 -0.371470
vn 0.896809 -0.240299 -0.371470
vn 0.896809 -0.240299 -0.371470
vn 0.896809 -0.240299 -0.371470
vn 0.860390 -0.240878 0.449118
vn 0.765994 -0.061438 0.639905
vn 0.840192 -0.191350 0.507408
vn 0.230286 -0.137342 0.963382
vn 0.192900 -0.175702 0.965359
vn 0.231670 -0.135902 0.963255
vn 0.371470 0.240299 -0.896809
vn 0.371470 0.240299 -0.896809
vn 0.459526 0.258463 -0.849725
vn 0.468118 0.260142 -0.844507
vn 0.831673 0.208738 0.514537
vn 0.765053 0.078875 0.639119
vn 0.849767 0.258540 0.459406
vn 0.195165 0.089342 0.976693
vn 0.197355 0.087329 0.976435
vn 0.220800 0.065627 0.973109
vn 0.281085 0.678598 -0.678598
vn 0.281085 0.678598 -0.678598
vn 0.281085 0.678598 -0.678598
vn 0.281085 0.678598 -0.678598
vn 0.678598 0.678598 -0.281084
vn 0.678598 0.678598 -0.281084
vn 0.678598 0.678598 -0.281084
vn 0.678598 0.678598 -0.281084
vn 0.691897 0.632609 0.347972
vn 0.691897 0.632609 0.347972
vn 0.691897 0.632609 0.347972
vn 0.691897 0.632609 0.347972
vn -0.030421 0.579848 0.814157
vn -0.030421 0.579848 0.814157
vn -0.030421 0.579848 0.814157
vn -0.030421 0.579848 0.814157
vn 0.106596 -0.960422 -0.257345
vn 0.106596 -0.960422 -0.257345
vn 0.106596 -0.960422 -0.257345
vn 0.257344 -0.960423 -0.106595
vn 0.257344 -0.960423 -0.106595
vn 0.257344 -0.960423 -0.106595
vn 0.257344 -0.960423 0.106595
vn 0.257344 -0.960423 0.106595
vn 0.257344 -0.960423 0.106595
vn 0.106596 -0.960422 0.257345
vn 0.106596 -0.960422 0.257345
vn 0.106596 -0.960422 0.257345
vn 0.106596 0.960423 -0.257344
vn 0.106596 0.960423 -0.257344
vn 0.106596 0.960423 -0.257344
vn 0.257344 0.960423 -0.106596
vn 0.257344 0.960422 -0.106596
vn 0.257344 0.960423 -0.106596
vn 0.106596 0.960423 0.257344
vn 0.106596 0.960423 0.257344
vn 0.106596 0.960423 0.257344
vn 0.446445 -0.159538 0.880474
vn 0.856780 0.282245 0.431586
vn 0.856780 0.282245 0.431586
vn 0.869806 -0.269475 0.413304
vn 0.869806 -0.269475 0.413304
vn 0.268611 -0.096874 0.958365
vn 0.607075 -0.765475 -0.213328
vn 0.607075 -0.765475 -0.213328
vn 0.607075 -0.765475 -0.213328
vn 0.607075 -0.765475 -0.213328
vn 0.404439 0.116176 0.907156
vn 0.404439 0.116176 0.907156
vn 0.404439 0.116176 0.907156
vn 0.404439 0.116176 0.907156
vn 0.548693 0.812034 -0.198838
vn 0.548693 0.812034 -0.198838
vn 0.548693 0.812034 -0.198838
vn 0.548693 0.812034 -0.198838
vn 0.665861 0.293062 -0.686108
vn 0.665861 0.293062 -0.686108
vn 0.910025 0.172534 0.376945
vn 0.910025 0.172534 0.376945
vn 0.910025 0.172534 0.376945
vn -0.663110 0.172333 0.728414
vn -0.663110 0.172333 0.728413
vn -0.663110 0.172333 0.728413
vn 0.042112 0.157165 -0.986674
vn 0.042112 0.157165 -0.986674
vn 0.042112 0.157165 -0.986674
vn 0.843382 0.346773 -0.410433
vn 0.673983 -0.734755 0.076696
s 1
g pCube6
usemtl lambert2SG
f 13/1/1 27/2/2 28/3/3 15/4/4
s 2
f 15/4/5 28/3/6 25/5/7 17/6/8
s 3
f 17/6/9 25/5/10 26/7/11 19/8/12
s 4
f 19/8/13 26/7/14 27/2/15 13/1/16
s off
f 19/8/17 13/1/18 15/4/19 17/6/20
s 3
f 21/9/21 29/10/22 30/11/23 22/12/24
s 4
f 23/13/25 22/12/26 30/11/27 31/14/28
s 1
f 24/15/29 23/13/30 31/14/31 32/16/32
s 2
f 21/9/33 24/15/34 32/16/35 29/10/36
s 3
f 25/5/10 21/9/21 22/12/24 26/7/11
s 4
f 27/2/15 26/7/14 22/12/26 23/13/25
s 1
f 28/3/3 27/2/2 23/13/30 24/15/29
s 2
f 25/5/7 28/3/6 24/15/34 21/9/33
s 3
f 29/10/22 18/17/37 20/18/38 30/11/23
s 4
f 31/14/28 30/11/27 20/18/39 14/19/40
s 1
f 32/16/32 31/14/31 14/19/41 16/20/42
s 2
f 29/10/36 32/16/35 16/20/43 18/17/44
s 6
f 1/21/45 33/22/46 36/23/47 51/24/48 52/25/49
s off
f 33/22/50 34/26/51 37/27/52 36/23/53
f 34/26/54 35/28/55 38/97/56 37/27/57
f 35/28/58 2/30/59 4/31/60 38/97/61
s 7
f 50/32/62 51/24/63 36/23/64 39/33/65 5/34/66
s off
f 36/23/67 37/27/68 40/35/69 39/33/70
s 8
f 48/96/71 38/29/72 41/37/73
s 9
f 38/29/74 6/38/75 41/37/76
s 10
f 5/34/77 39/33/78 42/39/79 7/40/80
s 11
f 44/98/81 48/96/82 41/37/83
s 12
f 41/37/84 6/38/85 44/98/86
s off
f 7/40/87 42/39/88 45/42/89 9/43/90
f 42/39/91 43/44/92 46/45/93 45/42/94
f 43/44/95 44/41/96 47/46/97 46/45/98
f 44/41/99 8/94/100 10/48/101 47/46/102
f 33/22/103 1/21/104 11/49/105
f 34/26/106 33/22/107 11/49/108
f 35/28/109 34/26/110 11/49/111
f 2/30/112 35/28/113 11/49/114
f 9/43/115 45/42/116 12/50/117
f 45/42/118 46/45/119 12/50/120
f 47/46/121 10/48/122 12/50/123
s 12
f 44/98/86 6/38/85 8/47/124
s 11
f 40/35/125 48/36/82 44/41/81 43/44/126
s 8
f 37/27/127 38/97/72 48/36/71 40/35/128
s 9
f 38/29/74 4/95/129 6/38/75
s off
f 39/33/130 40/35/131 14/19/132 20/18/133
f 40/35/134 43/44/135 16/20/136 14/19/137
f 43/44/138 42/39/139 18/17/140 16/20/141
s 10
f 42/39/79 39/33/78 20/18/142 18/17/143
s off
f 46/45/144 47/46/145 49/51/146
f 47/46/147 12/50/148 49/51/149
f 12/50/150 46/45/151 49/51/152
s 7
f 3/52/153 51/24/63 50/32/62
s 6
f 52/25/49 51/24/48 3/52/154
s 13
f 53/53/155 55/54/156 68/55/157 67/56/158
s 14
f 55/54/159 57/57/160 65/58/161 68/55/162
s 15
f 57/57/163 59/59/164 66/60/165 65/58/166
s 16
f 59/59/167 53/53/168 67/56/169 66/60/170
s off
f 59/59/171 57/57/172 55/54/173 53/53/174
s 15
f 61/61/175 62/62/176 70/63/177 69/64/178
s 16
f 63/65/179 71/66/180 70/63/181 62/62/182
s 13
f 64/67/183 72/68/184 71/66/185 63/65/186
s 14
f 61/61/187 69/64/188 72/68/189 64/67/190
s 15
f 65/58/166 66/60/165 62/62/176 61/61/175
s 16
f 67/56/169 63/65/179 62/62/182 66/60/170
s 13
f 68/55/157 64/67/183 63/65/186 67/56/158
s 14
f 65/58/161 61/61/187 64/67/190 68/55/162
s 15
f 69/64/178 70/63/177 60/69/191 58/70/192
s 16
f 71/66/180 54/71/193 60/69/194 70/63/181
s 13
f 72/68/184 56/72/195 54/71/196 71/66/185
s 14
f 69/64/188 58/70/197 56/72/198 72/68/189
s 20
f 1/21/199 52/25/200 90/73/201 76/74/202 73/75/203
s off
f 73/75/204 76/74/205 77/76/206 74/77/207
f 74/77/208 77/76/209 78/92/210 75/79/211
f 75/79/212 78/92/213 4/31/214 2/30/215
s 21
f 50/32/216 5/34/217 79/80/218 76/74/219 90/73/220
s off
f 76/74/221 79/80/222 80/81/223 77/76/224
s 22
f 88/82/225 81/83/226 78/78/227
s 23
f 78/78/228 81/83/229 6/38/230
s 24
f 5/34/231 7/40/232 82/84/233 79/80/234
s 25
f 84/85/235 81/83/236 88/82/237
s 26
f 81/83/238 84/85/239 6/38/240
s off
f 7/40/241 9/43/242 85/86/243 82/84/244
f 82/84/245 85/86/246 86/87/247 83/88/248
f 83/88/249 86/87/250 87/89/251 84/93/252
f 84/93/253 87/89/254 10/48/255 8/94/256
f 73/75/257 11/49/258 1/21/259
f 74/77/260 11/49/261 73/75/262
f 75/79/263 11/49/264 74/77/265
f 2/30/266 11/49/267 75/79/268
f 9/43/269 12/50/270 85/86/271
f 85/86/272 12/50/273 86/87/274
f 87/89/275 12/50/276 10/48/277
s 26
f 84/85/239 8/47/278 6/38/240
s 25
f 80/81/279 83/88/280 84/93/235 88/91/237
s 22
f 77/76/281 80/81/282 88/91/225 78/92/227
s 23
f 78/78/228 6/38/230 4/95/283
s off
f 79/80/284 60/69/285 54/71/286 80/81/287
f 80/81/288 54/71/289 56/72/290 83/88/291
f 83/88/292 56/72/293 58/70/294 82/84/295
s 24
f 82/84/233 58/70/296 60/69/297 79/80/234
s off
f 86/87/298 89/90/299 87/89/300
f 87/89/301 89/90/302 12/50/303
f 12/50/304 89/90/305 86/87/306
s 21
f 3/52/307 50/32/216 90/73/220
s 20
f 52/25/200 3/52/308 90/73/201
