# This file uses centimeters as units for non-parametric coordinates.

mtllib Rock.mtl
g default
v -1.647384 0.000000 1.431700
v 0.000000 0.000000 1.832174
v 1.674581 0.000000 1.361028
v -1.679353 1.148381 1.478815
v 0.000000 1.845981 1.855731
v 1.882956 1.365702 1.525929
v -1.153641 2.404509 1.313914
v 0.000000 2.447456 1.502372
v 1.209041 2.348847 1.297975
v -1.626411 2.517976 0.000000
v 0.000000 2.887916 0.000000
v 1.649548 2.834447 0.000000
v -1.540491 2.351781 -0.842769
v -0.047115 2.722923 -1.078341
v 1.096500 2.756320 -0.654310
v -2.131572 1.187475 -1.455257
v 0.000000 1.845981 -1.620158
v 1.576712 1.228460 -1.361028
v -2.024300 0.000000 -1.313914
v 0.047115 0.000000 -1.690830
v 1.741613 0.000000 -1.356802
v -2.354102 0.000000 0.000000
v 0.000000 0.000000 0.000000
v 2.354102 0.000000 0.000000
v 2.306987 1.845981 -0.023557
v -2.354102 1.845981 0.000000
vt 0.375000 0.000000
vt 0.500000 0.000000
vt 0.625000 0.000000
vt 0.375000 0.125000
vt 0.500000 0.125000
vt 0.625000 0.125000
vt 0.375000 0.250000
vt 0.500000 0.250000
vt 0.625000 0.250000
vt 0.375000 0.375000
vt 0.500000 0.375000
vt 0.625000 0.375000
vt 0.375000 0.500000
vt 0.500000 0.500000
vt 0.625000 0.500000
vt 0.375000 0.625000
vt 0.500000 0.625000
vt 0.625000 0.625000
vt 0.375000 0.750000
vt 0.500000 0.750000
vt 0.625000 0.750000
vt 0.375000 0.875000
vt 0.500000 0.875000
vt 0.625000 0.875000
vt 0.375000 1.000000
vt 0.500000 1.000000
vt 0.625000 1.000000
vt 0.875000 0.000000
vt 0.750000 0.000000
vt 0.875000 0.125000
vt 0.750000 0.125000
vt 0.875000 0.250000
vt 0.750000 0.250000
vt 0.125000 0.000000
vt 0.250000 0.000000
vt 0.125000 0.125000
vt 0.250000 0.125000
vt 0.125000 0.250000
vt 0.250000 0.250000
vn -0.222427 -0.025377 0.974619
vn 0.009473 -0.050949 0.998656
vn 0.000367 0.134496 0.990914
vn -0.232470 0.037410 0.971884
vn 0.209979 -0.070844 0.975136
vn 0.217324 0.012986 0.976013
vn -0.028420 0.384916 0.922514
vn -0.266653 0.328278 0.906162
vn 0.230289 0.419969 0.877834
vn -0.157750 0.963565 0.216002
vn -0.039522 0.961089 0.273399
vn -0.072641 0.992133 0.101953
vn -0.201167 0.979059 0.031241
vn 0.073320 0.943382 0.323505
vn 0.062459 0.978897 0.194573
vn -0.143849 0.975985 -0.163588
vn -0.239869 0.955870 -0.169632
vn 0.029720 0.988393 -0.148983
vn -0.239456 0.525485 -0.816411
vn 0.053383 0.527390 -0.847945
vn 0.018868 0.284398 -0.958520
vn -0.156662 0.109037 -0.981615
vn 0.309881 0.490742 -0.814338
vn 0.223112 0.158331 -0.961848
vn 0.013644 -0.001259 -0.999906
vn -0.123269 -0.029383 -0.991938
vn 0.184516 0.033953 -0.982243
vn 0.000000 -1.000000 0.000000
vn 0.000000 -1.000000 -0.000000
vn 0.000000 -1.000000 -0.000000
vn 0.000000 -1.000000 0.000000
vn 0.000000 -1.000000 -0.000000
vn 0.000000 -1.000000 -0.000000
vn 0.000000 -1.000000 0.000000
vn 0.000000 -1.000000 0.000000
vn 0.000000 -1.000000 0.000000
vn 0.999108 -0.005573 -0.041870
vn 0.888256 0.057136 -0.455782
vn 0.848802 0.167161 -0.501590
vn 0.949884 0.306071 -0.063563
vn 0.936593 -0.062204 0.344854
vn 0.912704 0.142766 0.382871
vn 0.658996 0.468666 -0.588283
vn 0.801685 0.578481 -0.150534
vn 0.736940 0.539806 0.406853
vn -0.981688 -0.043359 -0.185494
vn -0.989110 -0.030592 0.143966
vn -0.939338 0.312696 0.140943
vn -0.970809 0.092166 -0.221438
vn -0.904793 -0.016355 0.425537
vn -0.882048 0.147187 0.447579
vn -0.783156 0.598940 0.167144
vn -0.716228 0.620740 -0.318902
vn -0.730900 0.513572 0.449476
s 1
g pCube1
usemtl initialShadingGroup
f 1/1/1 2/2/2 5/5/3 4/4/4
f 2/2/2 3/3/5 6/6/6 5/5/3
f 4/4/4 5/5/3 8/8/7 7/7/8
f 5/5/3 6/6/6 9/9/9 8/8/7
s 2
f 7/7/10 8/8/11 11/11/12 10/10/13
f 8/8/11 9/9/14 12/12/15 11/11/12
f 10/10/13 11/11/12 14/14/16 13/13/17
f 11/11/12 12/12/15 15/15/18 14/14/16
s 3
f 13/13/19 14/14/20 17/17/21 16/16/22
f 14/14/20 15/15/23 18/18/24 17/17/21
f 16/16/22 17/17/21 20/20/25 19/19/26
f 17/17/21 18/18/24 21/21/27 20/20/25
s 4
f 19/19/28 20/20/29 23/23/30 22/22/31
f 20/20/29 21/21/32 24/24/33 23/23/30
f 22/22/31 23/23/30 2/26/34 1/25/35
f 23/23/30 24/24/33 3/27/36 2/26/34
s 5
f 24/29/37 21/28/38 18/30/39 25/31/40
f 3/3/41 24/29/37 25/31/40 6/6/42
f 25/31/40 18/30/39 15/32/43 12/33/44
f 6/6/42 25/31/40 12/33/44 9/9/45
s 6
f 19/34/46 22/35/47 26/37/48 16/36/49
f 22/35/47 1/1/50 4/4/51 26/37/48
f 16/36/49 26/37/48 10/39/52 13/38/53
f 26/37/48 4/4/51 7/7/54 10/39/52
