# This file uses centimeters as units for non-parametric coordinates.

mtllib Catapillar.mtl
g default
v 0.353553 0.000000 -0.353553
v 0.000000 0.000000 -2.591587
v 0.000000 0.000000 0.500000
v 0.353553 0.000000 0.353553
v 0.500000 0.000000 0.000000
v 0.612372 0.500000 -0.612372
v 0.000000 0.500000 -0.866025
v 0.000000 0.500000 0.866025
v 0.612372 0.500000 0.612372
v 0.866025 0.500000 0.000000
v 0.707107 1.000000 -0.707107
v 0.000000 1.000000 -1.000000
v 0.000000 1.000000 0.967533
v 0.707107 1.000000 0.707107
v 1.000000 1.000000 0.000000
v 0.612372 1.500000 -0.612372
v 0.000000 1.500000 -0.866025
v 0.000000 1.500000 0.866025
v 0.612372 1.500000 0.612372
v 0.866025 1.500000 0.000000
v 0.353553 1.866025 -0.353553
v 0.000000 1.866025 -0.500000
v 0.000000 1.866025 0.500000
v 0.353553 1.866025 0.353553
v 0.500000 1.866025 0.000000
v 0.000000 0.000000 0.000000
v 0.000000 2.000000 0.000000
v 0.000000 2.488357 1.262333
v 0.000000 1.669696 -0.696329
v 0.492379 1.669696 -0.492379
v 0.696329 1.669696 0.000000
v 0.258430 1.669696 0.566646
v 0.000000 1.894855 0.732528
v 0.210447 1.786054 0.823728
v 0.000000 1.726315 1.004137
v 0.328170 1.267949 0.792271
v 0.328170 0.732051 0.792271
v 0.341110 1.000000 0.903193
v 0.464600 1.500000 0.673582
v 0.247331 1.325111 0.810439
v 0.000000 1.122661 0.942631
v -0.353553 0.000000 -0.353553
v -0.353553 0.000000 0.353553
v -0.500000 0.000000 0.000000
v -0.612372 0.500000 -0.612372
v -0.612372 0.500000 0.612372
v -0.866025 0.500000 0.000000
v -0.707107 1.000000 -0.707107
v -0.707107 1.000000 0.707107
v -1.000000 1.000000 0.000000
v -0.612372 1.500000 -0.612372
v -0.612372 1.500000 0.612372
v -0.866025 1.500000 0.000000
v -0.353553 1.866025 -0.353553
v -0.353553 1.866025 0.353553
v -0.500000 1.866025 0.000000
v -0.492379 1.669696 -0.492379
v -0.696329 1.669696 0.000000
v -0.258430 1.669696 0.566646
v -0.210447 1.786054 0.823728
v -0.328170 1.267949 0.792271
v -0.328170 0.732051 0.792271
v -0.341110 1.000000 0.903193
v -0.464600 1.500000 0.673582
v -0.247331 1.325111 0.810439
vt 0.503682 0.700467
vt 0.394787 0.701169
vt 0.434265 0.562396
vt 0.433676 0.804624
vt 0.533419 0.776383
vt 0.666527 0.746367
vt 0.433116 0.891665
vt 0.558860 0.720620
vt 0.664645 0.626440
vt 0.557618 0.575066
vt 0.430762 0.477611
vt 0.573039 0.481544
vt 0.757187 0.751341
vt 0.762051 0.694868
vt 0.838118 0.751341
vt 0.712864 0.512805
vt 0.432521 0.396921
vt 0.562554 0.392105
vt 0.762051 0.807814
vt 0.683697 0.385137
vt 0.733897 0.294226
vt 0.433322 0.363140
vt 0.544427 0.355279
vt 0.431961 0.094117
vt 0.569572 0.183728
vt 0.927066 0.658845
vt 0.872377 0.594144
vt 0.632155 0.334427
vt 0.425445 0.767695
vt 0.512525 0.315861
vt 0.433469 0.324194
vt 0.433386 0.244284
vt 0.433813 0.184085
vt 0.546625 0.230468
vt 0.565700 0.289863
vt 0.871442 0.703040
vt 0.663888 0.201626
vt 0.872441 0.647998
vt 0.546190 0.086436
vt 0.149880 0.722492
vt 0.429576 0.000977
vt 0.341252 0.687860
vt 0.196838 0.751655
vt 0.332045 0.784844
vt 0.190346 0.633891
vt 0.306210 0.728480
vt 0.298079 0.578515
vt 0.284184 0.484454
vt 0.081908 0.722492
vt 0.000977 0.722492
vt 0.077044 0.666019
vt 0.146726 0.511934
vt 0.300038 0.392678
vt 0.077044 0.778965
vt 0.713690 0.861897
vt 0.180438 0.380069
vt 0.320904 0.355866
vt 0.816757 0.658370
vt 0.745018 0.672464
vt 0.233058 0.330717
vt 0.353893 0.316326
vt 0.320810 0.228979
vt 0.300633 0.288619
vt 0.744863 0.859481
vt 0.791472 0.820545
vt 0.316049 0.088481
vt 0.842873 0.776619
vt 0.200642 0.202852
vt 0.130671 0.294835
vt 0.842873 0.752152
vt 0.689215 0.751341
vt 0.433567 0.991543
vt 0.250457 0.858865
vt 0.000977 0.375636
vt 0.774671 0.810301
vt 0.053319 0.579842
vt 0.297025 0.183175
vt 0.872842 0.773953
vt 0.871996 0.546011
vt 0.894275 0.820545
vt 0.940883 0.859481
vt 0.972057 0.861897
vt 0.613763 0.856034
vt 0.911075 0.810301
vt 0.862879 0.374061
vt 0.810041 0.578596
vt 0.999023 0.672157
vn 0.892755 0.241313 -0.380470
vn 0.869667 0.474135 -0.137386
vn 0.890397 0.391355 -0.232453
vn 0.316991 -0.560228 0.765285
vn 0.316991 -0.560228 0.765285
vn 0.316991 -0.560228 0.765285
vn 0.316991 -0.560228 0.765285
vn 0.765285 -0.560228 0.316992
vn 0.765285 -0.560228 0.316992
vn 0.765285 -0.560228 0.316992
vn 0.765285 -0.560228 0.316992
vn 0.765285 -0.560228 -0.316992
vn 0.765285 -0.560228 -0.316992
vn 0.765285 -0.560228 -0.316992
vn 0.765285 -0.560228 -0.316992
vn 0.371470 -0.240299 -0.896809
vn 0.371470 -0.240299 -0.896809
vn 0.371470 -0.240299 -0.896809
vn 0.371470 -0.240299 -0.896809
vn 0.312778 -0.376155 0.872168
vn 0.356766 -0.257927 0.897882
vn 0.395660 -0.281720 0.874121
vn 0.896809 -0.240299 0.371470
vn 0.896809 -0.240299 0.371470
vn 0.896809 -0.240299 0.371470
vn 0.896809 -0.240299 0.371470
vn 0.896809 -0.240299 -0.371471
vn 0.896809 -0.240299 -0.371471
vn 0.896809 -0.240299 -0.371471
vn 0.896809 -0.240299 -0.371471
vn 0.371470 0.240299 -0.896809
vn 0.371470 0.240299 -0.896809
vn 0.371470 0.240299 -0.896809
vn 0.371470 0.240299 -0.896809
vn 0.355982 0.275855 0.892850
vn 0.312778 0.376155 0.872168
vn 0.395660 0.281720 0.874121
vn 0.896809 0.240299 0.371470
vn 0.896809 0.240299 0.371470
vn 0.896809 0.240299 0.371470
vn 0.896809 0.240299 0.371470
vn 0.896809 0.240299 -0.371471
vn 0.896809 0.240299 -0.371471
vn 0.896809 0.240299 -0.371471
vn 0.896809 0.240299 -0.371471
vn 0.281085 0.678599 -0.678598
vn 0.281085 0.678599 -0.678598
vn 0.281085 0.678598 -0.678598
vn 0.281085 0.678598 -0.678598
vn 0.740701 -0.186882 0.645320
vn 0.579881 0.617820 0.531071
vn 0.961965 0.091525 0.257383
vn 0.704592 -0.335252 0.625425
vn 0.501596 0.813537 0.294211
vn 0.501596 0.813537 0.294211
vn 0.576992 0.739000 0.347792
vn 0.587257 0.727317 0.355160
vn 0.678598 0.678599 -0.281085
vn 0.678598 0.678599 -0.281085
vn 0.678598 0.678598 -0.281085
vn 0.678598 0.678598 -0.281085
vn 0.000000 -1.000000 0.000000
vn 0.000000 -1.000000 0.000000
vn 0.000000 -1.000000 0.000000
vn 0.000000 -1.000000 0.000000
vn 0.000000 -1.000000 0.000000
vn 0.000000 -1.000000 0.000000
vn 0.000000 -1.000000 0.000000
vn 0.000000 -1.000000 0.000000
vn 0.000000 -1.000000 0.000000
vn 0.000000 -1.000000 0.000000
vn 0.000000 -1.000000 0.000000
vn 0.000000 -1.000000 0.000000
vn 0.106596 0.960422 -0.257345
vn 0.106596 0.960422 -0.257345
vn 0.106596 0.960422 -0.257345
vn 0.106596 0.960423 0.257344
vn 0.106596 0.960423 0.257344
vn 0.106596 0.960423 0.257344
vn 0.257344 0.960422 0.106596
vn 0.257344 0.960422 0.106596
vn 0.257344 0.960422 0.106596
vn 0.257344 0.960422 -0.106595
vn 0.257344 0.960422 -0.106595
vn 0.257344 0.960422 -0.106595
vn 0.316992 -0.560228 -0.765285
vn 0.281085 0.678598 -0.678599
vn 0.281085 0.678598 -0.678599
vn 0.678599 0.678598 -0.281085
vn 0.678599 0.678598 -0.281085
vn 0.752476 0.453266 0.477838
vn 0.752476 0.453266 0.477838
vn 0.584474 0.686468 -0.432610
vn 0.551963 0.829928 0.080972
vn 0.264298 0.723194 0.638072
vn 0.264299 0.723194 0.638072
vn 0.296301 0.632852 0.715335
vn 0.966836 0.171555 0.189200
vn 0.371470 -0.240299 0.896809
vn 0.371470 0.240299 0.896809
vn 0.371471 0.240299 0.896809
vn 0.355213 0.213057 0.910181
vn 0.255836 0.289887 0.922233
vn 0.339498 0.187140 0.921802
vn 0.350937 -0.205966 0.913467
vn 0.289465 -0.249857 0.924003
vn 0.350976 0.206031 0.913437
vn -0.892755 0.241313 -0.380470
vn -0.890397 0.391355 -0.232453
vn -0.869667 0.474135 -0.137386
vn -0.316991 -0.560228 0.765285
vn -0.316991 -0.560228 0.765285
vn -0.316991 -0.560228 0.765285
vn -0.316991 -0.560228 0.765285
vn -0.765285 -0.560228 0.316992
vn -0.765285 -0.560228 0.316992
vn -0.765285 -0.560228 0.316992
vn -0.765285 -0.560228 0.316992
vn -0.765285 -0.560228 -0.316992
vn -0.765285 -0.560228 -0.316992
vn -0.765285 -0.560228 -0.316992
vn -0.765285 -0.560228 -0.316992
vn -0.371470 -0.240299 -0.896809
vn -0.371470 -0.240299 -0.896809
vn -0.371470 -0.240299 -0.896809
vn -0.371470 -0.240299 -0.896809
vn -0.312778 -0.376155 0.872168
vn -0.395660 -0.281720 0.874121
vn -0.356766 -0.257927 0.897882
vn -0.896809 -0.240299 0.371470
vn -0.896809 -0.240299 0.371470
vn -0.896809 -0.240299 0.371470
vn -0.896809 -0.240299 0.371470
vn -0.896809 -0.240299 -0.371471
vn -0.896809 -0.240299 -0.371471
vn -0.896809 -0.240299 -0.371471
vn -0.896809 -0.240299 -0.371471
vn -0.371470 0.240299 -0.896809
vn -0.371470 0.240299 -0.896809
vn -0.371470 0.240299 -0.896809
vn -0.371470 0.240299 -0.896809
vn -0.355982 0.275855 0.892850
vn -0.395660 0.281720 0.874121
vn -0.312778 0.376155 0.872168
vn -0.896809 0.240299 0.371470
vn -0.896809 0.240299 0.371470
vn -0.896809 0.240299 0.371470
vn -0.896809 0.240299 0.371470
vn -0.896809 0.240299 -0.371471
vn -0.896809 0.240299 -0.371471
vn -0.896809 0.240299 -0.371471
vn -0.896809 0.240299 -0.371471
vn -0.281085 0.678598 -0.678598
vn -0.281085 0.678598 -0.678598
vn -0.281085 0.678598 -0.678598
vn -0.281085 0.678598 -0.678598
vn -0.740701 -0.186882 0.645320
vn -0.704592 -0.335252 0.625425
vn -0.961965 0.091525 0.257383
vn -0.579881 0.617820 0.531071
vn -0.501596 0.813537 0.294211
vn -0.587257 0.727317 0.355160
vn -0.576992 0.739000 0.347792
vn -0.501596 0.813537 0.294211
vn -0.678598 0.678599 -0.281085
vn -0.678598 0.678598 -0.281085
vn -0.678598 0.678598 -0.281085
vn -0.678598 0.678599 -0.281085
vn 0.000000 -1.000000 0.000000
vn 0.000000 -1.000000 0.000000
vn 0.000000 -1.000000 0.000000
vn 0.000000 -1.000000 0.000000
vn 0.000000 -1.000000 0.000000
vn 0.000000 -1.000000 0.000000
vn 0.000000 -1.000000 0.000000
vn 0.000000 -1.000000 0.000000
vn 0.000000 -1.000000 0.000000
vn 0.000000 -1.000000 0.000000
vn 0.000000 -1.000000 0.000000
vn 0.000000 -1.000000 0.000000
vn -0.106596 0.960422 -0.257345
vn -0.106596 0.960422 -0.257345
vn -0.106596 0.960422 -0.257345
vn -0.106596 0.960423 0.257344
vn -0.106596 0.960423 0.257344
vn -0.106596 0.960423 0.257344
vn -0.257344 0.960422 0.106596
vn -0.257344 0.960422 0.106596
vn -0.257344 0.960422 0.106596
vn -0.257344 0.960422 -0.106595
vn -0.257344 0.960422 -0.106595
vn -0.257344 0.960422 -0.106595
vn -0.316992 -0.560228 -0.765285
vn -0.281085 0.678598 -0.678599
vn -0.281085 0.678598 -0.678599
vn -0.678599 0.678598 -0.281085
vn -0.678599 0.678598 -0.281085
vn -0.752476 0.453266 0.477838
vn -0.752476 0.453266 0.477838
vn -0.584474 0.686468 -0.432610
vn -0.551963 0.829928 0.080972
vn -0.264299 0.723195 0.638072
vn -0.264299 0.723195 0.638072
vn -0.296301 0.632852 0.715335
vn -0.966836 0.171555 0.189200
vn -0.371470 -0.240299 0.896809
vn -0.371470 0.240299 0.896809
vn -0.371471 0.240299 0.896809
vn -0.355213 0.213057 0.910181
vn -0.255836 0.289887 0.922233
vn -0.339498 0.187140 0.921802
vn -0.350937 -0.205966 0.913467
vn -0.289465 -0.249857 0.924003
vn -0.350976 0.206031 0.913437
s 1
g Catapillar:pSphere6
usemtl unwrapBaseShaderSG
f 1/1/1 2/2/2 7/3/3
s off
f 3/4/4 4/5/5 9/6/6 8/7/7
f 4/5/8 5/8/9 10/9/10 9/6/11
f 5/8/12 1/1/13 6/10/14 10/9/15
f 6/10/16 7/3/17 12/11/18 11/12/19
s 2
f 38/13/20 37/14/21 14/15/22
s off
f 9/6/23 10/9/24 15/16/25 14/86/26
f 10/9/27 6/10/28 11/12/29 15/16/30
f 11/12/31 12/11/32 17/17/33 16/18/34
s 3
f 36/19/35 38/13/36 14/15/37
s off
f 14/86/38 15/16/39 20/20/40 19/21/41
f 15/16/42 11/12/43 16/18/44 20/20/45
s 4
f 16/18/46 17/17/47 29/22/48 30/23/49
s 5
f 18/79/50 32/87/51 34/26/52 35/27/53
s 6
f 19/21/54 20/20/55 31/28/56 32/25/57
s 7
f 20/20/58 16/18/59 30/23/60 31/28/61
s off
f 2/2/62 1/1/63 26/29/64
f 4/5/65 3/4/66 26/29/67
f 5/8/68 4/5/69 26/29/70
f 1/1/71 5/8/72 26/29/73
f 21/30/74 22/31/75 27/32/76
f 23/33/77 24/34/78 27/32/79
f 24/34/80 25/35/81 27/32/82
f 25/35/83 21/30/84 27/32/85
s 1
f 1/1/1 7/3/3 6/10/86
s 4
f 30/23/49 29/22/48 22/31/87 21/30/88
s 7
f 31/28/61 30/23/60 21/30/89 25/35/90
s 6
f 32/25/57 31/28/56 25/35/91 24/34/92
s 5
f 33/36/93 34/26/52 32/87/51 23/78/94
f 18/24/50 39/37/95 19/21/96 32/25/51
f 23/33/94 32/25/51 24/34/97
f 28/38/98 34/26/52 33/36/93
f 35/27/53 34/26/52 28/38/98
s 2
f 37/83/21 9/6/99 14/86/22
s 3
f 19/21/100 36/85/35 14/86/37
f 39/81/101 40/80/102 36/84/35 19/82/100
f 13/70/103 36/84/35 40/80/102 41/67/104
s 2
f 8/7/105 37/83/21 13/72/106
f 8/7/105 9/6/99 37/83/21
s 3
f 13/71/103 38/13/36 36/19/35
s 2
f 13/71/106 37/14/21 38/13/20
s 3
f 18/24/107 40/39/102 39/37/101
f 41/41/104 40/39/102 18/24/107
s 8
f 42/42/108 7/3/109 2/2/110
s off
f 3/4/111 8/7/112 46/43/113 43/44/114
f 43/44/115 46/43/116 47/45/117 44/46/118
f 44/46/119 47/45/120 45/47/121 42/42/122
f 45/47/123 48/48/124 12/11/125 7/3/126
s 9
f 63/49/127 49/50/128 62/51/129
s off
f 46/43/130 49/76/131 50/52/132 47/45/133
f 47/45/134 50/52/135 48/48/136 45/47/137
f 48/48/138 51/53/139 17/17/140 12/11/141
s 10
f 61/54/142 49/50/143 63/49/144
s off
f 49/76/145 52/69/146 53/56/147 50/52/148
f 50/52/149 53/56/150 51/53/151 48/48/152
s 11
f 51/53/153 57/57/154 29/22/155 17/17/156
s 12
f 18/79/157 35/27/158 60/58/159 59/59/160
s 13
f 52/69/161 59/77/162 58/60/163 53/56/164
s 14
f 53/56/165 58/60/166 57/57/167 51/53/168
s off
f 2/2/169 26/29/170 42/42/171
f 43/44/172 26/29/173 3/4/174
f 44/46/175 26/29/176 43/44/177
f 42/42/178 26/29/179 44/46/180
f 54/61/181 27/32/182 22/31/183
f 23/33/184 27/32/185 55/62/186
f 55/62/187 27/32/188 56/63/189
f 56/63/190 27/32/191 54/61/192
s 8
f 42/42/108 45/47/193 7/3/109
s 11
f 57/57/154 54/61/194 22/31/195 29/22/155
s 14
f 58/60/166 56/63/196 54/61/197 57/57/167
s 13
f 59/77/162 55/62/198 56/63/199 58/60/163
s 12
f 33/36/200 23/78/201 59/59/160 60/58/159
f 18/24/157 59/77/160 52/69/202 64/68/203
f 23/33/201 55/62/204 59/77/160
f 28/38/205 33/36/200 60/58/159
f 35/27/158 28/38/205 60/58/159
s 9
f 62/73/129 49/76/128 46/43/206
s 10
f 52/69/207 49/76/143 61/74/142
f 64/64/208 52/55/207 61/75/142 65/65/209
f 13/70/210 41/67/211 65/65/209 61/75/142
s 9
f 8/7/212 13/72/213 62/73/129
f 8/7/212 62/73/129 46/43/206
s 10
f 13/40/210 61/54/142 63/49/144
s 9
f 13/40/213 63/49/127 62/51/129
s 10
f 18/24/214 64/68/208 65/66/209
f 41/41/211 18/24/214 65/66/209
