# This file uses centimeters as units for non-parametric coordinates.

mtllib Tree.mtl
g default
v 0.256970 0.000000 -0.445085
v -0.256970 0.000000 -0.445085
v -0.513940 0.000000 -0.000000
v -0.256970 0.000000 0.445085
v 0.256970 0.000000 0.445085
v 0.513940 0.000000 0.000000
v 0.256970 11.346151 -0.445085
v -0.256970 11.346151 -0.445085
v -0.513940 11.346151 -0.000000
v -0.256970 11.346151 0.445085
v 0.256970 11.346151 0.445085
v 0.513940 11.346151 0.000000
v 0.000000 0.000000 0.000000
v 0.000000 11.346151 0.000000
v 0.256970 3.321112 0.445085
v -0.256970 3.321112 0.445085
v -0.513940 3.321112 -0.000000
v -0.256970 3.321112 -0.445085
v 0.256970 3.321112 -0.445085
v 0.513940 3.321112 0.000000
v 1.000345 3.679657 1.732648
v -1.000345 3.679657 1.732648
v -2.000690 3.679657 -0.000000
v -1.000345 3.679657 -1.732648
v 1.000345 3.679657 -1.732648
v 2.000690 3.679657 0.000000
v 0.256970 6.146074 0.445085
v -0.256970 6.146074 0.445085
v -0.513940 6.146074 -0.000000
v -0.256970 6.146074 -0.445085
v 0.256970 6.146074 -0.445085
v 0.513940 6.146074 0.000000
v 0.848391 6.443450 1.469456
v -0.848391 6.443450 1.469456
v -1.696782 6.443450 -0.000000
v -0.848391 6.443450 -1.469456
v 0.848391 6.443450 -1.469456
v 1.696782 6.443450 0.000000
v 0.256970 8.156588 0.445085
v -0.256970 8.156588 0.445085
v -0.513940 8.156588 -0.000000
v -0.256970 8.156588 -0.445085
v 0.256970 8.156588 -0.445085
v 0.513940 8.156588 0.000000
v 0.731680 8.350170 1.267307
v -0.731680 8.350170 1.267307
v -1.463360 8.350170 -0.000000
v -0.731680 8.350170 -1.267307
v 0.731680 8.350170 -1.267307
v 1.463360 8.350170 0.000000
v 0.938023 3.886431 1.624704
v -0.938024 3.886431 1.624704
v -1.876047 3.886431 -0.000000
v -0.938023 3.886431 -1.624704
v 0.938024 3.886431 -1.624704
v 1.876047 3.886431 0.000000
v 0.256970 2.448896 0.445085
v -0.256970 2.448896 0.445085
v -0.513940 2.448896 -0.000000
v -0.256970 2.448896 -0.445085
v 0.256970 2.448896 -0.445085
v 0.513940 2.448896 0.000000
v 0.781007 6.638638 1.352744
v -0.781007 6.638638 1.352744
v -1.562014 6.638638 -0.000000
v -0.781007 6.638638 -1.352744
v 0.781007 6.638638 -1.352744
v 1.562014 6.638638 0.000000
v 0.714742 8.457069 1.237970
v -0.714742 8.457069 1.237970
v -1.429484 8.457069 -0.000000
v -0.714742 8.457069 -1.237970
v 0.714742 8.457069 -1.237970
v 1.429484 8.457069 0.000000
v 0.377802 7.806581 0.654372
v -0.377802 7.806581 0.654372
v -0.755604 7.806581 -0.000000
v -0.377802 7.806581 -0.654372
v 0.377802 7.806581 -0.654372
v 0.755604 7.806581 0.000000
v 0.417242 5.614311 0.722685
v -0.417243 5.614311 0.722685
v -0.834485 5.614311 -0.000000
v -0.417242 5.614311 -0.722685
v 0.417243 5.614311 -0.722685
v 0.834485 5.614311 0.000000
vt 0.164311 0.792527
vt 0.166704 0.746893
vt 0.190277 0.736710
vt 0.190123 0.796425
vt 0.142402 0.712711
vt 0.155979 0.690894
vt 0.102377 0.701613
vt 0.101416 0.676131
vt 0.060643 0.718485
vt 0.047373 0.697296
vt 0.026351 0.761608
vt 0.007122 0.740214
vt 0.104297 0.766654
vt 0.311183 0.085266
vt 0.289466 0.134060
vt 0.223399 0.105711
vt 0.254116 0.166157
vt 0.210357 0.180798
vt 0.160647 0.178726
vt 0.110205 0.152372
vt 0.101274 0.666931
vt 0.042950 0.689203
vt 0.353875 0.817570
vt 0.452491 0.746146
vt 0.160914 0.683111
vt 0.540088 0.686705
vt 0.198725 0.733005
vt 0.627767 0.628474
vt 0.199368 0.797559
vt 0.731799 0.570378
vt 0.000977 0.732934
vt 0.217557 0.958564
vt 0.344233 0.808589
vt 0.443908 0.735214
vt 0.532648 0.674802
vt 0.621722 0.615948
vt 0.727973 0.557459
vt 0.209960 0.941154
vt 0.370201 0.611462
vt 0.285113 0.668351
vt 0.204564 0.546716
vt 0.311081 0.499300
vt 0.458801 0.551638
vt 0.405495 0.443967
vt 0.545879 0.490303
vt 0.493061 0.379628
vt 0.627659 0.429959
vt 0.580206 0.306281
vt 0.215922 0.715455
vt 0.046956 0.609739
vt 0.197354 0.533223
vt 0.303420 0.486294
vt 0.397161 0.431783
vt 0.484208 0.367772
vt 0.571645 0.293967
vt 0.046179 0.589279
vt 0.254396 0.382755
vt 0.165315 0.410701
vt 0.137258 0.300918
vt 0.227712 0.295436
vt 0.340661 0.338526
vt 0.305353 0.264331
vt 0.417304 0.278514
vt 0.370587 0.209051
vt 0.479300 0.207957
vt 0.420552 0.129424
vt 0.086278 0.423768
vt 0.000977 0.270849
vt 0.137087 0.296784
vt 0.226863 0.291596
vt 0.303458 0.261046
vt 0.367762 0.206535
vt 0.417317 0.127291
vt 0.003206 0.265854
vt 0.295539 0.707299
vt 0.386096 0.639805
vt 0.476075 0.577529
vt 0.566598 0.516319
vt 0.660182 0.456503
vt 0.205319 0.772253
vt 0.172090 0.441827
vt 0.265385 0.405492
vt 0.353009 0.357582
vt 0.432791 0.296680
vt 0.503899 0.225840
vt 0.074677 0.464637
vt 0.755199 0.399038
vt 0.697053 0.382548
vt 0.566942 0.149435
vt 0.525467 0.143355
vt 0.469865 0.000977
vt 0.314796 0.023260
vt 0.692740 0.192999
vt 0.161233 0.850618
vt 0.447187 0.999023
vt 0.834294 0.717944
vt 0.170327 0.854021
vt 0.901590 0.500531
vt 0.475168 0.001834
vt 0.710017 0.204108
vt 0.912793 0.515776
vt 0.489355 0.941797
vt 0.759508 0.740176
vt 0.687294 0.785954
vt 0.617070 0.836502
vt 0.549679 0.888410
vt 0.134055 0.837573
vn 0.000000 0.000000 -1.000000
vn 0.000000 0.000000 -1.000000
vn 0.000000 0.000000 -1.000000
vn 0.000000 0.000000 -1.000000
vn -0.866025 0.000000 -0.500000
vn -0.866025 0.000000 -0.500000
vn -0.866025 0.000000 -0.500000
vn -0.866025 0.000000 -0.500000
vn -0.866026 0.000000 0.500000
vn -0.866026 0.000000 0.500000
vn -0.866025 0.000000 0.500000
vn -0.866025 0.000000 0.500000
vn -0.000000 0.000000 1.000000
vn -0.000000 0.000000 1.000000
vn -0.000000 0.000000 1.000000
vn -0.000000 0.000000 1.000000
vn 0.866025 0.000000 0.500000
vn 0.866025 0.000000 0.500000
vn 0.866025 0.000000 0.500000
vn 0.866025 0.000000 0.500000
vn 0.866026 0.000000 -0.500000
vn 0.866026 0.000000 -0.500000
vn 0.866025 0.000000 -0.500000
vn 0.866025 0.000000 -0.500000
vn 0.000000 -1.000000 -0.000001
vn 0.000000 -1.000000 -0.000001
vn 0.000000 -1.000000 0.000000
vn 0.000000 -1.000000 0.000000
vn 0.000000 -1.000000 0.000001
vn 0.000000 -1.000000 0.000001
vn 0.000000 -1.000000 0.000000
vn 0.000000 1.000000 -0.000001
vn 0.000000 1.000000 -0.000001
vn 0.000000 1.000000 0.000000
vn 0.000000 1.000000 0.000000
vn 0.000000 1.000000 0.000001
vn 0.000000 1.000000 0.000001
vn 0.000000 1.000000 0.000000
vn -0.000000 -0.899352 0.437226
vn -0.000000 -0.899352 0.437226
vn -0.000000 -0.855080 0.518496
vn -0.000000 -0.855080 0.518496
vn -0.378649 -0.899351 0.218613
vn -0.378649 -0.899352 0.218613
vn -0.449031 -0.855080 0.259248
vn -0.449031 -0.855080 0.259248
vn -0.378649 -0.899352 -0.218613
vn -0.378649 -0.899352 -0.218613
vn -0.449031 -0.855080 -0.259248
vn -0.449031 -0.855080 -0.259248
vn 0.000000 -0.899351 -0.437226
vn 0.000000 -0.899351 -0.437226
vn 0.000000 -0.855080 -0.518496
vn 0.000000 -0.855080 -0.518496
vn 0.378649 -0.899352 -0.218613
vn 0.378649 -0.899352 -0.218613
vn 0.449030 -0.855080 -0.259248
vn 0.449031 -0.855080 -0.259248
vn 0.378649 -0.899351 0.218613
vn 0.378649 -0.899351 0.218613
vn 0.449030 -0.855080 0.259248
vn 0.449030 -0.855080 0.259248
vn -0.000000 0.462774 0.886476
vn -0.000000 0.462774 0.886476
vn -0.767711 0.462774 0.443238
vn -0.767711 0.462774 0.443238
vn -0.767711 0.462774 -0.443238
vn -0.767711 0.462774 -0.443238
vn 0.000000 0.462774 -0.886476
vn 0.000000 0.462774 -0.886476
vn 0.767711 0.462774 -0.443238
vn 0.767711 0.462774 -0.443238
vn 0.767711 0.462774 0.443238
vn 0.767711 0.462774 0.443238
vn -0.000000 -0.809395 0.587264
vn -0.000000 -0.809395 0.587264
vn -0.000000 -0.823605 0.567163
vn -0.000000 -0.823605 0.567163
vn -0.508586 -0.809395 0.293632
vn -0.508586 -0.809395 0.293632
vn -0.491178 -0.823605 0.283582
vn -0.491178 -0.823605 0.283582
vn -0.508586 -0.809395 -0.293632
vn -0.508586 -0.809395 -0.293632
vn -0.491178 -0.823605 -0.283582
vn -0.491178 -0.823605 -0.283582
vn 0.000000 -0.809395 -0.587265
vn 0.000000 -0.809395 -0.587264
vn 0.000000 -0.823605 -0.567163
vn 0.000000 -0.823605 -0.567163
vn 0.508586 -0.809395 -0.293632
vn 0.508586 -0.809395 -0.293632
vn 0.491178 -0.823605 -0.283581
vn 0.491178 -0.823605 -0.283582
vn 0.508586 -0.809395 0.293632
vn 0.508586 -0.809395 0.293632
vn 0.491178 -0.823605 0.283582
vn 0.491178 -0.823605 0.283582
vn -0.000000 0.513201 0.858268
vn -0.000000 0.513201 0.858268
vn -0.743282 0.513201 0.429134
vn -0.743282 0.513201 0.429134
vn -0.743282 0.513201 -0.429134
vn -0.743282 0.513201 -0.429134
vn 0.000000 0.513201 -0.858268
vn 0.000000 0.513201 -0.858268
vn 0.743282 0.513201 -0.429134
vn 0.743282 0.513201 -0.429134
vn 0.743282 0.513201 0.429134
vn 0.743282 0.513201 0.429134
vn -0.000000 -0.854797 0.518963
vn -0.000000 -0.854797 0.518963
vn 0.000000 -0.910610 0.413266
vn 0.000000 -0.910610 0.413266
vn -0.449435 -0.854797 0.259481
vn -0.449435 -0.854797 0.259481
vn -0.357899 -0.910610 0.206633
vn -0.357899 -0.910610 0.206633
vn -0.449435 -0.854797 -0.259481
vn -0.449435 -0.854797 -0.259481
vn -0.357899 -0.910610 -0.206633
vn -0.357899 -0.910610 -0.206633
vn 0.000000 -0.854797 -0.518963
vn 0.000000 -0.854797 -0.518963
vn 0.000000 -0.910610 -0.413266
vn 0.000000 -0.910610 -0.413266
vn 0.449435 -0.854797 -0.259481
vn 0.449435 -0.854797 -0.259481
vn 0.357899 -0.910610 -0.206633
vn 0.357899 -0.910611 -0.206633
vn 0.449435 -0.854797 0.259481
vn 0.449435 -0.854797 0.259481
vn 0.357899 -0.910610 0.206633
vn 0.357899 -0.910610 0.206633
vn 0.000000 0.264656 0.964343
vn 0.000000 0.264656 0.964343
vn -0.835146 0.264656 0.482171
vn -0.835146 0.264656 0.482171
vn -0.835146 0.264656 -0.482172
vn -0.835146 0.264656 -0.482171
vn 0.000000 0.264656 -0.964343
vn 0.000000 0.264656 -0.964343
vn 0.835146 0.264656 -0.482171
vn 0.835146 0.264656 -0.482171
vn 0.835146 0.264656 0.482171
vn 0.835146 0.264656 0.482171
vn -0.000000 0.462774 0.886476
vn -0.000000 0.462774 0.886476
vn -0.767711 0.462774 0.443238
vn -0.767711 0.462774 0.443238
vn -0.767711 0.462774 -0.443238
vn -0.767711 0.462774 -0.443238
vn 0.000000 0.462774 -0.886476
vn 0.000000 0.462774 -0.886476
vn 0.767711 0.462774 -0.443238
vn 0.767711 0.462774 -0.443238
vn 0.767711 0.462774 0.443238
vn 0.767711 0.462774 0.443238
vn -0.000000 0.513202 0.858268
vn -0.000000 0.513202 0.858268
vn -0.743282 0.513202 0.429134
vn -0.743282 0.513202 0.429134
vn -0.743282 0.513202 -0.429134
vn -0.743282 0.513202 -0.429134
vn 0.000000 0.513202 -0.858268
vn 0.000000 0.513202 -0.858268
vn 0.743282 0.513202 -0.429134
vn 0.743282 0.513202 -0.429134
vn 0.743282 0.513202 0.429134
vn 0.743282 0.513202 0.429134
vn 0.000000 0.264656 0.964343
vn 0.000000 0.264656 0.964343
vn -0.835146 0.264656 0.482171
vn -0.835146 0.264656 0.482171
vn -0.835146 0.264656 -0.482172
vn -0.835145 0.264656 -0.482172
vn 0.000000 0.264656 -0.964343
vn 0.000000 0.264656 -0.964343
vn 0.835146 0.264656 -0.482171
vn 0.835146 0.264656 -0.482171
vn 0.835145 0.264656 0.482171
vn 0.835146 0.264656 0.482171
s 1
g pCylinder1
usemtl unwrapBaseShaderSG
f 1/1/1 2/2/2 60/3/3 61/4/4
s 2
f 2/2/5 3/5/6 59/6/7 60/3/8
s 3
f 3/5/9 4/7/10 58/8/11 59/6/12
s 4
f 4/7/13 5/9/14 57/10/15 58/8/16
s 5
f 5/9/17 6/11/18 62/12/19 57/10/20
s 6
f 6/107/21 1/1/22 61/4/23 62/94/24
s 7
f 2/2/25 1/1/26 13/13/27
f 3/5/28 2/2/25 13/13/27
f 4/7/29 3/5/28 13/13/27
f 5/9/30 4/7/29 13/13/27
f 6/11/31 5/9/30 13/13/27
f 1/1/26 6/107/31 13/13/27
s 8
f 7/14/32 8/15/33 14/16/34
f 8/15/33 9/17/35 14/16/34
f 9/17/35 10/18/36 14/16/34
f 10/18/36 11/19/37 14/16/34
f 11/19/37 12/20/38 14/16/34
f 12/92/38 7/14/32 14/16/34
s 4
f 16/106/39 15/102/40 21/23/41 22/24/42
s 3
f 17/105/43 16/106/44 22/24/45 23/26/46
s 2
f 18/104/47 17/105/48 23/26/49 24/28/50
s 1
f 19/103/51 18/104/52 24/28/53 25/30/54
s 6
f 20/96/55 19/103/56 25/30/57 26/101/58
s 5
f 15/102/59 20/95/60 26/32/61 21/23/62
s 4
f 22/24/42 21/23/41 51/33/63 52/34/64
s 3
f 23/26/46 22/24/45 52/34/65 53/35/66
s 2
f 24/28/50 23/26/49 53/35/67 54/36/68
s 1
f 25/30/54 24/28/53 54/36/69 55/37/70
s 6
f 26/101/58 25/30/57 55/37/71 56/98/72
s 5
f 21/23/62 26/32/61 56/38/73 51/33/74
s 4
f 28/39/75 27/40/76 33/41/77 34/42/78
s 3
f 29/43/79 28/39/80 34/42/81 35/44/82
s 2
f 30/45/83 29/43/84 35/44/85 36/46/86
s 1
f 31/47/87 30/45/88 36/46/89 37/48/90
s 6
f 32/88/91 31/47/92 37/48/93 38/100/94
s 5
f 27/40/95 32/49/96 38/50/97 33/41/98
s 4
f 34/42/78 33/41/77 63/51/99 64/52/100
s 3
f 35/44/82 34/42/81 64/52/101 65/53/102
s 2
f 36/46/86 35/44/85 65/53/103 66/54/104
s 1
f 37/48/90 36/46/89 66/54/105 67/55/106
s 6
f 38/100/94 37/48/93 67/55/107 68/93/108
s 5
f 33/41/98 38/50/97 68/56/109 63/51/110
s 4
f 40/57/111 39/58/112 45/59/113 46/60/114
s 3
f 41/61/115 40/57/116 46/60/117 47/62/118
s 2
f 42/63/119 41/61/120 47/62/121 48/64/122
s 1
f 43/65/123 42/63/124 48/64/125 49/66/126
s 6
f 44/90/127 43/65/128 49/66/129 50/99/130
s 5
f 39/58/131 44/67/132 50/68/133 45/59/134
s 4
f 46/60/114 45/59/113 69/69/135 70/70/136
s 3
f 47/62/118 46/60/117 70/70/137 71/71/138
s 2
f 48/64/122 47/62/121 71/71/139 72/72/140
s 1
f 49/66/126 48/64/125 72/72/141 73/73/142
s 6
f 50/99/130 49/66/129 73/73/143 74/91/144
s 5
f 45/59/134 50/68/133 74/74/145 69/69/146
s 4
f 52/34/64 51/33/63 81/75/147 82/76/148
s 3
f 53/35/66 52/34/65 82/76/149 83/77/150
s 2
f 54/36/68 53/35/67 83/77/151 84/78/152
s 1
f 55/37/70 54/36/69 84/78/153 85/79/154
s 6
f 56/98/72 55/37/71 85/79/155 86/87/156
s 5
f 51/33/74 56/38/73 86/80/157 81/75/158
s 4
f 58/8/16 57/10/15 15/22/40 16/21/39
s 3
f 59/6/12 58/8/11 16/21/44 17/25/43
s 2
f 60/3/8 59/6/7 17/25/48 18/27/47
s 1
f 61/4/4 60/3/3 18/27/52 19/29/51
s 6
f 62/94/24 61/4/23 19/29/56 20/97/55
s 5
f 57/10/20 62/12/19 20/31/60 15/22/59
s 4
f 64/52/100 63/51/99 75/81/159 76/82/160
s 3
f 65/53/102 64/52/101 76/82/161 77/83/162
s 2
f 66/54/104 65/53/103 77/83/163 78/84/164
s 1
f 67/55/106 66/54/105 78/84/165 79/85/166
s 6
f 68/93/108 67/55/107 79/85/167 80/89/168
s 5
f 63/51/110 68/56/109 80/86/169 75/81/170
s 4
f 70/70/136 69/69/135 11/19/171 10/18/172
s 3
f 71/71/138 70/70/137 10/18/173 9/17/174
s 2
f 72/72/140 71/71/139 9/17/175 8/15/176
s 1
f 73/73/142 72/72/141 8/15/177 7/14/178
s 6
f 74/91/144 73/73/143 7/14/179 12/92/180
s 5
f 69/69/146 74/74/145 12/20/181 11/19/182
s 4
f 76/82/160 75/81/159 39/58/112 40/57/111
s 3
f 77/83/162 76/82/161 40/57/116 41/61/115
s 2
f 78/84/164 77/83/163 41/61/120 42/63/119
s 1
f 79/85/166 78/84/165 42/63/124 43/65/123
s 6
f 80/89/168 79/85/167 43/65/128 44/90/127
s 5
f 75/81/170 80/86/169 44/67/132 39/58/131
s 4
f 82/76/148 81/75/147 27/40/76 28/39/75
s 3
f 83/77/150 82/76/149 28/39/80 29/43/79
s 2
f 84/78/152 83/77/151 29/43/84 30/45/83
s 1
f 85/79/154 84/78/153 30/45/88 31/47/87
s 6
f 86/87/156 85/79/155 31/47/92 32/88/91
s 5
f 81/75/158 86/80/157 32/49/96 27/40/95
